<?xml version="1.0" standalone="no"?>
<!DOCTYPE svg PUBLIC "-//W3C//DTD SVG 20010904//EN"
 "http://www.w3.org/TR/2001/REC-SVG-20010904/DTD/svg10.dtd">
<svg version="1.0" xmlns="http://www.w3.org/2000/svg"
 width="512.000000pt" height="512.000000pt" viewBox="0 0 512.000000 512.000000"
 preserveAspectRatio="xMidYMid meet">
<metadata>
Created by potrace 1.14, written by Peter Selinger 2001-2017
</metadata>
<g transform="translate(0.000000,512.000000) scale(0.100000,-0.100000)"
fill="#000000" stroke="none">
<path d="M3072 3934 c0 -459 3 -599 14 -645 52 -224 157 -384 329 -502 33 -23
62 -42 65 -43 3 0 32 -13 64 -28 125 -57 329 -82 451 -53 22 5 50 11 63 13 12
3 47 15 77 29 30 13 55 21 55 17 0 -4 4 -2 8 3 4 6 29 22 57 35 57 29 248 212
260 250 4 14 11 27 14 30 10 8 69 142 75 170 3 14 11 43 17 65 8 28 12 227 14
643 1 331 1 602 -1 602 -1 0 -119 -116 -261 -257 l-258 -258 -262 1 -261 0
-244 245 c-135 134 -252 250 -261 257 -14 12 -16 -36 -15 -574z m564 -380 c52
-78 -1 -189 -94 -198 -23 -2 -45 0 -48 5 -3 5 -9 7 -14 4 -12 -7 -59 41 -72
74 -43 106 70 210 174 159 21 -10 45 -30 54 -44z m626 29 c86 -77 40 -222 -71
-228 -80 -4 -135 49 -135 130 0 64 24 99 84 118 49 16 90 9 122 -20z"/>
<path d="M680 4000 c-55 -11 -85 -26 -124 -61 -118 -103 -119 -280 -4 -385 50
-44 95 -64 162 -69 28 -3 61 -7 73 -9 76 -16 164 -96 185 -169 8 -31 12 -327
14 -1142 1 -605 4 -1109 7 -1120 11 -44 40 -122 57 -155 64 -124 216 -237 343
-256 16 -2 32 -6 37 -9 5 -3 353 -5 775 -5 682 -1 769 1 800 15 49 24 65 67
66 177 2 167 -33 238 -150 301 -30 17 -63 21 -199 26 l-164 6 42 30 c23 17 47
35 53 40 7 6 46 35 87 65 41 30 77 57 80 60 3 3 21 17 40 30 29 20 65 48 156
119 6 5 35 26 65 47 30 21 56 41 59 44 3 3 39 30 80 60 41 30 77 57 80 60 3 3
43 34 90 68 47 35 92 68 100 75 48 38 90 67 97 67 4 0 8 -267 7 -592 -1 -552
0 -596 17 -629 30 -60 65 -70 245 -70 175 1 213 11 242 65 15 28 17 104 17
884 1 764 -1 852 -14 852 -9 -1 -45 -7 -80 -15 -59 -12 -275 -14 -336 -2 -102
19 -183 46 -282 92 -272 127 -483 386 -562 691 -10 39 -12 40 -48 38 -62 -4
-176 -15 -203 -19 -65 -9 -106 -17 -122 -21 -9 -3 -27 -7 -39 -9 -19 -4 -69
-19 -139 -41 -8 -3 -16 -5 -17 -5 -8 1 -171 -73 -220 -100 -60 -33 -195 -124
-241 -162 -35 -30 -162 -157 -187 -188 -11 -13 -42 -52 -68 -86 -27 -35 -49
-63 -50 -63 -1 0 -2 177 -3 393 -1 423 -2 443 -34 537 -69 204 -210 368 -397
463 -38 20 -136 55 -173 62 -89 18 -178 24 -220 15z"/>
</g>
</svg>
